<?xml version="1.0" encoding="UTF-8"?>
<svg id="Vrstva_1" data-name="Vrstva 1" xmlns="http://www.w3.org/2000/svg" viewBox="0 0 195.81 193">
  <defs>
    <style>
      .cls-1 {
        fill: #fff;
      }

      .cls-1, .cls-2 {
        stroke: #1d1d1b;
        stroke-miterlimit: 10;
      }

      .cls-2 {
        fill: none;
      }
    </style>
  </defs>
  <path class="cls-1" d="M91.08,166.27h0V27.01c0-4.8.01-9.61.02-14.41-6.73.56-16.68,2.2-27.68,7.13-9.19,4.12-16.06,9.17-20.72,13.19,3.92,3.04,7.84,6.07,11.76,9.11,3.94-3.09,9.49-6.76,16.72-9.77,2.13-.89,4.21-1.62,6.21-2.25v134.37c-9.15-2.33-15.35-6.67-19.19-9.41-4.91-3.5-12.18-9.7-18-19.34-3.9-6.47-5.72-12.22-7.28-17.14-1.95-6.13-3.02-11.48-3.63-15.49h11.5v-12.79c-7.94-.03-15.87-.06-23.81-.08-.16,1.69-.24,3.63-.15,5.77.05.99.13,1.93.24,2.83h-.02c.1,5.58,1.23,38.45,28.09,61.94,18.1,15.82,38.21,18.94,46.1,19.74-.05-4.71-.1-9.42-.16-14.14Z"/>
  <ellipse class="cls-2" cx="97.9" cy="96.5" rx="97.4" ry="96"/>
  <path class="cls-1" d="M131.76,103.49h49.22v-13.85c-.98-8.15-4.48-28.14-20.13-47.07-17.2-20.82-38.61-27.71-46.36-29.81h-13.85v54.7h13.85V25.32c9.39,3.83,22.17,10.88,33.49,23.76,13.05,14.84,18.19,30.62,20.3,40.57h-67.65v90.77h13.85c8.06-1.84,21.73-6.1,35.48-16.66,17.94-13.8,26.02-30.69,29.24-38.72-4.76-.03-9.51-.05-14.27-.08-3.07,6.47-9.42,17.67-21.5,27.63-10.47,8.64-21.17,12.98-28.95,15.23v-64.31h17.27Z"/>
</svg>